<svg viewBox="0 0 1084 2164" fill="#6D28D9" xmlns="http://www.w3.org/2000/svg">
   <path d="M626.157 512.83H457.133L0 1708.79H183.109L541.645 770.845L900.18 1708.79H1083.29L626.157 512.83Z" fill="inherit"/>
   <path d="M541.645 236.888C607.06 236.888 660.089 183.858 660.089 118.444C660.089 53.0291 607.06 0 541.645 0C476.23 0 423.2 53.0291 423.2 118.444C423.2 183.858 476.23 236.888 541.645 236.888Z" fill="inherit"/>
   <path d="M541.645 2164C607.06 2164 660.089 2110.97 660.089 2045.56C660.089 1980.14 607.06 1927.11 541.645 1927.11C476.23 1927.11 423.2 1980.14 423.2 2045.56C423.2 2110.97 476.23 2164 541.645 2164Z" fill="inherit"/>
</svg>