<svg viewBox="0 0 2581 2580" fill="none" xmlns="http://www.w3.org/2000/svg">
   <path fill="white" style="/*! background-color: black; */" d="M0.5 960C0.5 623.969 0.5 455.953 65.8961 327.606C123.42 214.708 215.208 122.92 328.106 65.3961C456.453 0 624.469 0 960.5 0H1620.5C1956.53 0 2124.55 0 2252.89 65.3961C2365.79 122.92 2457.58 214.708 2515.1 327.606C2580.5 455.953 2580.5 623.969 2580.5 960V1620C2580.5 1956.03 2580.5 2124.05 2515.1 2252.39C2457.58 2365.29 2365.79 2457.08 2252.89 2514.6C2124.55 2580 1956.53 2580 1620.5 2580H960.5C624.469 2580 456.453 2580 328.106 2514.6C215.208 2457.08 123.42 2365.29 65.8961 2252.39C0.5 2124.05 0.5 1956.03 0.5 1620V960Z"/>
   <path fill-rule="evenodd" clip-rule="evenodd" fill="#6D28D9" d="M1408.09 326.444C1408.09 391.858 1355.06 444.888 1289.64 444.888C1224.23 444.888 1171.2 391.858 1171.2 326.444C1171.2 261.029 1224.23 208 1289.64 208C1355.06 208 1408.09 261.029 1408.09 326.444ZM1205.13 720.83H1374.16L1831.29 1916.79H1648.18L1289.64 978.845L931.109 1916.79H748L1205.13 720.83ZM1408.09 2253.56C1408.09 2318.97 1355.06 2372 1289.64 2372C1224.23 2372 1171.2 2318.97 1171.2 2253.56C1171.2 2188.14 1224.23 2135.11 1289.64 2135.11C1355.06 2135.11 1408.09 2188.14 1408.09 2253.56Z"/>
</svg>